<?xml version='1.0' encoding='utf-8'?>
<svg xmlns:xlink="http://www.w3.org/1999/xlink" class="pygal-chart" id="chart-92df5b03-debb-4966-853b-ce2d6e7d0078" viewBox="0 0 800 600" xmlns="http://www.w3.org/2000/svg"><!--Generated with pygal 2.2.3 (etree) ©Kozea 2012-2016 on 2016-06-03--><!--http://pygal.org--><!--http://github.com/Kozea/pygal--><defs><style type="text/css">#chart-92df5b03-debb-4966-853b-ce2d6e7d0078{-webkit-user-select:none;-webkit-font-smoothing:antialiased;font-family:Consolas,"Liberation Mono",Menlo,Courier,monospace}#chart-92df5b03-debb-4966-853b-ce2d6e7d0078 .title{font-family:Consolas,"Liberation Mono",Menlo,Courier,monospace;font-size:16px}#chart-92df5b03-debb-4966-853b-ce2d6e7d0078 .legends .legend text{font-family:Consolas,"Liberation Mono",Menlo,Courier,monospace;font-size:14px}#chart-92df5b03-debb-4966-853b-ce2d6e7d0078 .axis text{font-family:Consolas,"Liberation Mono",Menlo,Courier,monospace;font-size:10px}#chart-92df5b03-debb-4966-853b-ce2d6e7d0078 .axis text.major{font-family:Consolas,"Liberation Mono",Menlo,Courier,monospace;font-size:10px}#chart-92df5b03-debb-4966-853b-ce2d6e7d0078 .text-overlay text.value{font-family:Consolas,"Liberation Mono",Menlo,Courier,monospace;font-size:16px}#chart-92df5b03-debb-4966-853b-ce2d6e7d0078 .text-overlay text.label{font-family:Consolas,"Liberation Mono",Menlo,Courier,monospace;font-size:10px}#chart-92df5b03-debb-4966-853b-ce2d6e7d0078 .tooltip{font-family:Consolas,"Liberation Mono",Menlo,Courier,monospace;font-size:14px}#chart-92df5b03-debb-4966-853b-ce2d6e7d0078 text.no_data{font-family:Consolas,"Liberation Mono",Menlo,Courier,monospace;font-size:64px}
#chart-92df5b03-debb-4966-853b-ce2d6e7d0078{background-color:transparent}#chart-92df5b03-debb-4966-853b-ce2d6e7d0078 path,#chart-92df5b03-debb-4966-853b-ce2d6e7d0078 line,#chart-92df5b03-debb-4966-853b-ce2d6e7d0078 rect,#chart-92df5b03-debb-4966-853b-ce2d6e7d0078 circle{-webkit-transition:150ms;-moz-transition:150ms;transition:150ms}#chart-92df5b03-debb-4966-853b-ce2d6e7d0078 .graph &gt; .background{fill:transparent}#chart-92df5b03-debb-4966-853b-ce2d6e7d0078 .plot &gt; .background{fill:rgba(240,240,240,0.7)}#chart-92df5b03-debb-4966-853b-ce2d6e7d0078 .graph{fill:rgba(0,0,0,0.9)}#chart-92df5b03-debb-4966-853b-ce2d6e7d0078 text.no_data{fill:rgba(0,0,0,0.9)}#chart-92df5b03-debb-4966-853b-ce2d6e7d0078 .title{fill:rgba(0,0,0,0.9)}#chart-92df5b03-debb-4966-853b-ce2d6e7d0078 .legends .legend text{fill:rgba(0,0,0,0.9)}#chart-92df5b03-debb-4966-853b-ce2d6e7d0078 .legends .legend:hover text{fill:rgba(0,0,0,0.9)}#chart-92df5b03-debb-4966-853b-ce2d6e7d0078 .axis .line{stroke:rgba(0,0,0,0.9)}#chart-92df5b03-debb-4966-853b-ce2d6e7d0078 .axis .guide.line{stroke:rgba(0,0,0,0.5)}#chart-92df5b03-debb-4966-853b-ce2d6e7d0078 .axis .major.line{stroke:rgba(0,0,0,0.9)}#chart-92df5b03-debb-4966-853b-ce2d6e7d0078 .axis text.major{fill:rgba(0,0,0,0.9)}#chart-92df5b03-debb-4966-853b-ce2d6e7d0078 .axis.y .guides:hover .guide.line,#chart-92df5b03-debb-4966-853b-ce2d6e7d0078 .line-graph .axis.x .guides:hover .guide.line,#chart-92df5b03-debb-4966-853b-ce2d6e7d0078 .stackedline-graph .axis.x .guides:hover .guide.line,#chart-92df5b03-debb-4966-853b-ce2d6e7d0078 .xy-graph .axis.x .guides:hover .guide.line{stroke:rgba(0,0,0,0.9)}#chart-92df5b03-debb-4966-853b-ce2d6e7d0078 .axis .guides:hover text{fill:rgba(0,0,0,0.9)}#chart-92df5b03-debb-4966-853b-ce2d6e7d0078 .reactive{fill-opacity:.7;stroke-opacity:.8}#chart-92df5b03-debb-4966-853b-ce2d6e7d0078 .ci{stroke:rgba(0,0,0,0.9)}#chart-92df5b03-debb-4966-853b-ce2d6e7d0078 .reactive.active,#chart-92df5b03-debb-4966-853b-ce2d6e7d0078 .active .reactive{fill-opacity:.8;stroke-opacity:.9;stroke-width:4}#chart-92df5b03-debb-4966-853b-ce2d6e7d0078 .ci .reactive.active{stroke-width:1.5}#chart-92df5b03-debb-4966-853b-ce2d6e7d0078 .series text{fill:rgba(0,0,0,0.9)}#chart-92df5b03-debb-4966-853b-ce2d6e7d0078 .tooltip rect{fill:rgba(240,240,240,0.7);stroke:rgba(0,0,0,0.9);-webkit-transition:opacity 150ms;-moz-transition:opacity 150ms;transition:opacity 150ms}#chart-92df5b03-debb-4966-853b-ce2d6e7d0078 .tooltip .label{fill:rgba(0,0,0,0.9)}#chart-92df5b03-debb-4966-853b-ce2d6e7d0078 .tooltip .label{fill:rgba(0,0,0,0.9)}#chart-92df5b03-debb-4966-853b-ce2d6e7d0078 .tooltip .legend{font-size:.8em;fill:rgba(0,0,0,0.5)}#chart-92df5b03-debb-4966-853b-ce2d6e7d0078 .tooltip .x_label{font-size:.6em;fill:rgba(0,0,0,0.9)}#chart-92df5b03-debb-4966-853b-ce2d6e7d0078 .tooltip .xlink{font-size:.5em;text-decoration:underline}#chart-92df5b03-debb-4966-853b-ce2d6e7d0078 .tooltip .value{font-size:1.5em}#chart-92df5b03-debb-4966-853b-ce2d6e7d0078 .bound{font-size:.5em}#chart-92df5b03-debb-4966-853b-ce2d6e7d0078 .max-value{font-size:.75em;fill:rgba(0,0,0,0.5)}#chart-92df5b03-debb-4966-853b-ce2d6e7d0078 .map-element{fill:rgba(240,240,240,0.7);stroke:rgba(0,0,0,0.5) !important}#chart-92df5b03-debb-4966-853b-ce2d6e7d0078 .map-element .reactive{fill-opacity:inherit;stroke-opacity:inherit}#chart-92df5b03-debb-4966-853b-ce2d6e7d0078 .color-0,#chart-92df5b03-debb-4966-853b-ce2d6e7d0078 .color-0 a:visited{stroke:rgb(12,55,149);fill:rgb(12,55,149)}#chart-92df5b03-debb-4966-853b-ce2d6e7d0078 .color-1,#chart-92df5b03-debb-4966-853b-ce2d6e7d0078 .color-1 a:visited{stroke:rgb(117,38,65);fill:rgb(117,38,65)}#chart-92df5b03-debb-4966-853b-ce2d6e7d0078 .color-2,#chart-92df5b03-debb-4966-853b-ce2d6e7d0078 .color-2 a:visited{stroke:rgb(228,127,0);fill:rgb(228,127,0)}#chart-92df5b03-debb-4966-853b-ce2d6e7d0078 .color-3,#chart-92df5b03-debb-4966-853b-ce2d6e7d0078 .color-3 a:visited{stroke:rgb(159,170,0);fill:rgb(159,170,0)}#chart-92df5b03-debb-4966-853b-ce2d6e7d0078 .text-overlay .color-0 text{fill:black}#chart-92df5b03-debb-4966-853b-ce2d6e7d0078 .text-overlay .color-1 text{fill:black}#chart-92df5b03-debb-4966-853b-ce2d6e7d0078 .text-overlay .color-2 text{fill:black}#chart-92df5b03-debb-4966-853b-ce2d6e7d0078 .text-overlay .color-3 text{fill:black}
#chart-92df5b03-debb-4966-853b-ce2d6e7d0078 text.no_data{text-anchor:middle}#chart-92df5b03-debb-4966-853b-ce2d6e7d0078 .guide.line{fill:none}#chart-92df5b03-debb-4966-853b-ce2d6e7d0078 .centered{text-anchor:middle}#chart-92df5b03-debb-4966-853b-ce2d6e7d0078 .title{text-anchor:middle}#chart-92df5b03-debb-4966-853b-ce2d6e7d0078 .legends .legend text{fill-opacity:1}#chart-92df5b03-debb-4966-853b-ce2d6e7d0078 .axis.x text{text-anchor:middle}#chart-92df5b03-debb-4966-853b-ce2d6e7d0078 .axis.x:not(.web) text[transform]{text-anchor:start}#chart-92df5b03-debb-4966-853b-ce2d6e7d0078 .axis.x:not(.web) text[transform].backwards{text-anchor:end}#chart-92df5b03-debb-4966-853b-ce2d6e7d0078 .axis.y text{text-anchor:end}#chart-92df5b03-debb-4966-853b-ce2d6e7d0078 .axis.y text[transform].backwards{text-anchor:start}#chart-92df5b03-debb-4966-853b-ce2d6e7d0078 .axis.y2 text{text-anchor:start}#chart-92df5b03-debb-4966-853b-ce2d6e7d0078 .axis.y2 text[transform].backwards{text-anchor:end}#chart-92df5b03-debb-4966-853b-ce2d6e7d0078 .axis .guide.line{stroke-dasharray:4,4}#chart-92df5b03-debb-4966-853b-ce2d6e7d0078 .axis .major.guide.line{stroke-dasharray:6,6}#chart-92df5b03-debb-4966-853b-ce2d6e7d0078 .horizontal .axis.y .guide.line,#chart-92df5b03-debb-4966-853b-ce2d6e7d0078 .horizontal .axis.y2 .guide.line,#chart-92df5b03-debb-4966-853b-ce2d6e7d0078 .vertical .axis.x .guide.line{opacity:0}#chart-92df5b03-debb-4966-853b-ce2d6e7d0078 .horizontal .axis.always_show .guide.line,#chart-92df5b03-debb-4966-853b-ce2d6e7d0078 .vertical .axis.always_show .guide.line{opacity:1 !important}#chart-92df5b03-debb-4966-853b-ce2d6e7d0078 .axis.y .guides:hover .guide.line,#chart-92df5b03-debb-4966-853b-ce2d6e7d0078 .axis.y2 .guides:hover .guide.line,#chart-92df5b03-debb-4966-853b-ce2d6e7d0078 .axis.x .guides:hover .guide.line{opacity:1}#chart-92df5b03-debb-4966-853b-ce2d6e7d0078 .axis .guides:hover text{opacity:1}#chart-92df5b03-debb-4966-853b-ce2d6e7d0078 .nofill{fill:none}#chart-92df5b03-debb-4966-853b-ce2d6e7d0078 .subtle-fill{fill-opacity:.2}#chart-92df5b03-debb-4966-853b-ce2d6e7d0078 .dot{stroke-width:1px;fill-opacity:1}#chart-92df5b03-debb-4966-853b-ce2d6e7d0078 .dot.active{stroke-width:5px}#chart-92df5b03-debb-4966-853b-ce2d6e7d0078 .dot.negative{fill:transparent}#chart-92df5b03-debb-4966-853b-ce2d6e7d0078 text,#chart-92df5b03-debb-4966-853b-ce2d6e7d0078 tspan{stroke:none !important}#chart-92df5b03-debb-4966-853b-ce2d6e7d0078 .series text.active{opacity:1}#chart-92df5b03-debb-4966-853b-ce2d6e7d0078 .tooltip rect{fill-opacity:.95;stroke-width:.5}#chart-92df5b03-debb-4966-853b-ce2d6e7d0078 .tooltip text{fill-opacity:1}#chart-92df5b03-debb-4966-853b-ce2d6e7d0078 .showable{visibility:hidden}#chart-92df5b03-debb-4966-853b-ce2d6e7d0078 .showable.shown{visibility:visible}#chart-92df5b03-debb-4966-853b-ce2d6e7d0078 .gauge-background{fill:rgba(229,229,229,1);stroke:none}#chart-92df5b03-debb-4966-853b-ce2d6e7d0078 .bg-lines{stroke:transparent;stroke-width:2px}</style><script type="text/javascript">window.pygal = window.pygal || {};window.pygal.config = window.pygal.config || {};window.pygal.config['92df5b03-debb-4966-853b-ce2d6e7d0078'] = {"zero": 0, "show_y_guides": true, "css": ["file://style.css", "file://graph.css"], "x_label_rotation": 0, "logarithmic": false, "interpolate": "cubic", "legend_box_size": 12, "interpolation_parameters": {}, "show_y_labels": true, "margin_right": null, "margin": 20, "interpolation_precision": 250, "stroke": true, "range": null, "title": "Growth Rates\nGraph by Daily Pakistan", "x_labels_major_every": null, "y_label_rotation": 0, "order_min": null, "inverse_y_axis": false, "margin_left": null, "tooltip_border_radius": 0, "show_minor_y_labels": true, "y_labels_major_count": null, "box_mode": "extremes", "missing_value_fill_truncation": "x", "no_data_text": "No data", "fill": true, "dynamic_print_values": false, "max_scale": 16, "no_prefix": false, "show_x_guides": false, "half_pie": false, "stroke_style": null, "include_x_axis": false, "show_minor_x_labels": true, "show_legend": true, "defs": [], "pretty_print": false, "js": ["//kozea.github.io/pygal.js/2.0.x/pygal-tooltips.min.js"], "print_values": false, "y_labels_major_every": null, "legend_at_bottom_columns": null, "x_labels_major": null, "min_scale": 4, "legends": ["Services", "Inflation", "Industry", "Agriculture"], "truncate_label": null, "print_labels": false, "truncate_legend": null, "show_only_major_dots": false, "y_labels": null, "secondary_range": null, "height": 600, "classes": ["pygal-chart"], "width": 800, "formatter": null, "x_labels": ["2013-2014", "2014-2015", "2015-2016"], "allow_interruptions": false, "legend_at_bottom": false, "strict": false, "spacing": 10, "x_title": "Year", "style": {"major_label_font_size": 10, "stroke_opacity_hover": ".9", "ci_colors": [], "stroke_opacity": ".8", "legend_font_family": "Consolas, \"Liberation Mono\", Menlo, Courier, monospace", "title_font_size": 16, "value_background": "rgba(229, 229, 229, 1)", "opacity_hover": ".8", "foreground": "rgba(0, 0, 0, 0.9)", "value_font_family": "Consolas, \"Liberation Mono\", Menlo, Courier, monospace", "value_label_font_family": "Consolas, \"Liberation Mono\", Menlo, Courier, monospace", "transition": "150ms", "no_data_font_family": "Consolas, \"Liberation Mono\", Menlo, Courier, monospace", "no_data_font_size": 64, "foreground_strong": "rgba(0, 0, 0, 0.9)", "plot_background": "rgba(240, 240, 240, 0.7)", "value_colors": [], "colors": ["rgb(12,55,149)", "rgb(117,38,65)", "rgb(228,127,0)", "rgb(159,170,0)", "rgb(149,12,12)"], "tooltip_font_size": 14, "major_label_font_family": "Consolas, \"Liberation Mono\", Menlo, Courier, monospace", "opacity": ".7", "foreground_subtle": "rgba(0, 0, 0, 0.5)", "label_font_size": 10, "background": "transparent", "major_guide_stroke_dasharray": "6,6", "title_font_family": "Consolas, \"Liberation Mono\", Menlo, Courier, monospace", "font_family": "Consolas, \"Liberation Mono\", Menlo, Courier, monospace", "tooltip_font_family": "Consolas, \"Liberation Mono\", Menlo, Courier, monospace", "value_font_size": 16, "value_label_font_size": 10, "guide_stroke_dasharray": "4,4", "legend_font_size": 14, "label_font_family": "Consolas, \"Liberation Mono\", Menlo, Courier, monospace"}, "xrange": null, "tooltip_fancy_mode": true, "inner_radius": 0, "rounded_bars": null, "show_x_labels": true, "print_values_position": "center", "force_uri_protocol": "https", "margin_top": null, "x_labels_major_count": null, "y_labels_major": null, "stack_from_top": false, "margin_bottom": null, "show_dots": true, "explicit_size": false, "disable_xml_declaration": false, "y_title": "in %", "print_zeroes": true, "dots_size": 2.5}</script><script type="text/javascript" xlink:href="https://kozea.github.io/pygal.js/2.0.x/pygal-tooltips.min.js" /></defs><title>Growth Rates
Graph by Daily Pakistan</title><g class="graph line-graph vertical"><rect class="background" height="600" width="800" x="0" y="0" /><g class="plot" transform="translate(180, 72)"><rect class="background" height="462" width="599.6" x="0" y="0" /><g class="axis y"><g class="guides"><path class="axis major line" d="M0.000000 443.534925 h599.600000" /><text class="major" x="-5" y="447.0349253470706">0</text><title>0</title></g><g class="guides"><path class="guide line" d="M0.000000 393.111456 h599.600000" /><text class="" x="-5" y="396.61145551383913">1</text><title>1</title></g><g class="guides"><path class="guide line" d="M0.000000 342.687986 h599.600000" /><text class="" x="-5" y="346.18798568060765">2</text><title>2</title></g><g class="guides"><path class="guide line" d="M0.000000 292.264516 h599.600000" /><text class="" x="-5" y="295.7645158473762">3</text><title>3</title></g><g class="guides"><path class="guide line" d="M0.000000 241.841046 h599.600000" /><text class="" x="-5" y="245.34104601414472">4</text><title>4</title></g><g class="guides"><path class="major guide line" d="M0.000000 191.417576 h599.600000" /><text class="major" x="-5" y="194.91757618091322">5</text><title>5</title></g><g class="guides"><path class="guide line" d="M0.000000 140.994106 h599.600000" /><text class="" x="-5" y="144.49410634768174">6</text><title>6</title></g><g class="guides"><path class="guide line" d="M0.000000 90.570637 h599.600000" /><text class="" x="-5" y="94.07063651445026">7</text><title>7</title></g><g class="guides"><path class="guide line" d="M0.000000 40.147167 h599.600000" /><text class="" x="-5" y="43.647166681218835">8</text><title>8</title></g></g><g class="axis x"><g class="guides"><path class="line" d="M11.530769 0.000000 v462.000000" /><text class="" x="11.53076923076923" y="477.0">2013-2014</text></g><g class="guides"><path class="guide line" d="M299.800000 0.000000 v462.000000" /><text class="" x="299.8" y="477.0">2014-2015</text></g><g class="guides"><path class="guide line" d="M588.069231 0.000000 v462.000000" /><text class="" x="588.0692307692308" y="477.0">2015-2016</text></g></g><g class="series serie-0 color-0"><path class="line reactive" d="M11.530769 443.534925 L11.530769 221.671658 12.683846 221.556188 13.836923 221.440718 14.990000 221.325246 16.143077 221.209773 17.296154 221.094298 18.449231 220.978820 19.602308 220.863339 20.755385 220.747855 21.908462 220.632366 23.061538 220.516872 24.214615 220.401373 25.367692 220.285868 26.520769 220.170356 27.673846 220.054838 28.826923 219.939312 29.980000 219.823779 31.133077 219.708236 32.286154 219.592685 33.439231 219.477124 34.592308 219.361553 35.745385 219.245972 36.898462 219.130379 38.051538 219.014774 39.204615 218.899157 40.357692 218.783528 41.510769 218.667885 42.663846 218.552228 43.816923 218.436557 44.970000 218.320871 46.123077 218.205170 47.276154 218.089452 48.429231 217.973718 49.582308 217.857967 50.735385 217.742199 51.888462 217.626412 53.041538 217.510607 54.194615 217.394782 55.347692 217.278938 56.500769 217.163074 57.653846 217.047189 58.806923 216.931282 59.960000 216.815354 61.113077 216.699403 62.266154 216.583430 63.419231 216.467433 64.572308 216.351412 65.725385 216.235366 66.878462 216.119296 68.031538 216.003200 69.184615 215.887078 70.337692 215.770929 71.490769 215.654753 72.643846 215.538549 73.796923 215.422318 74.950000 215.306057 76.103077 215.189767 77.256154 215.073448 78.409231 214.957098 79.562308 214.840717 80.715385 214.724304 81.868462 214.607860 83.021538 214.491383 84.174615 214.374874 85.327692 214.258330 86.480769 214.141753 87.633846 214.025141 88.786923 213.908494 89.940000 213.791811 91.093077 213.675092 92.246154 213.558336 93.399231 213.441543 94.552308 213.324712 95.705385 213.207843 96.858462 213.090935 98.011538 212.973988 99.164615 212.857000 100.317692 212.739972 101.470769 212.622904 102.623846 212.505793 103.776923 212.388641 104.930000 212.271446 106.083077 212.154208 107.236154 212.036926 108.389231 211.919600 109.542308 211.802229 110.695385 211.684813 111.848462 211.567351 113.001538 211.449843 114.154615 211.332288 115.307692 211.214686 116.460769 211.097035 117.613846 210.979337 118.766923 210.861589 119.920000 210.743792 121.073077 210.625944 122.226154 210.508046 123.379231 210.390097 124.532308 210.272097 125.685385 210.154044 126.838462 210.035938 127.991538 209.917779 129.144615 209.799567 130.297692 209.681300 131.450769 209.562978 132.603846 209.444601 133.756923 209.326168 134.910000 209.207678 136.063077 209.089132 137.216154 208.970528 138.369231 208.851866 139.522308 208.733145 140.675385 208.614366 141.828462 208.495526 142.981538 208.376627 144.134615 208.257667 145.287692 208.138645 146.440769 208.019562 147.593846 207.900417 148.746923 207.781208 149.900000 207.661937 151.053077 207.542601 152.206154 207.423201 153.359231 207.303736 154.512308 207.184206 155.665385 207.064609 156.818462 206.944946 157.971538 206.825216 159.124615 206.705418 160.277692 206.585552 161.430769 206.465618 162.583846 206.345614 163.736923 206.225540 164.890000 206.105396 166.043077 205.985182 167.196154 205.864896 168.349231 205.744538 169.502308 205.624107 170.655385 205.503604 171.808462 205.383027 172.961538 205.262377 174.114615 205.141651 175.267692 205.020851 176.420769 204.899975 177.573846 204.779023 178.726923 204.657994 179.880000 204.536888 181.033077 204.415704 182.186154 204.294442 183.339231 204.173101 184.492308 204.051681 185.645385 203.930181 186.798462 203.808600 187.951538 203.686939 189.104615 203.565196 190.257692 203.443371 191.410769 203.321464 192.563846 203.199473 193.716923 203.077399 194.870000 202.955241 196.023077 202.832998 197.176154 202.710670 198.329231 202.588256 199.482308 202.465756 200.635385 202.343169 201.788462 202.220495 202.941538 202.097733 204.094615 201.974883 205.247692 201.851943 206.400769 201.728914 207.553846 201.605796 208.706923 201.482586 209.860000 201.359286 211.013077 201.235894 212.166154 201.112410 213.319231 200.988833 214.472308 200.865163 215.625385 200.741400 216.778462 200.617542 217.931538 200.493589 219.084615 200.369541 220.237692 200.245397 221.390769 200.121157 222.543846 199.996820 223.696923 199.872386 224.850000 199.747853 226.003077 199.623222 227.156154 199.498492 228.309231 199.373662 229.462308 199.248733 230.615385 199.123702 231.768462 198.998571 232.921538 198.873338 234.074615 198.748002 235.227692 198.622564 236.380769 198.497022 237.533846 198.371377 238.686923 198.245627 239.840000 198.119773 240.993077 197.993812 242.146154 197.867746 243.299231 197.741574 244.452308 197.615294 245.605385 197.488907 246.758462 197.362412 247.911538 197.235808 249.064615 197.109095 250.217692 196.982273 251.370769 196.855340 252.523846 196.728296 253.676923 196.601141 254.830000 196.473874 255.983077 196.346495 257.136154 196.219003 258.289231 196.091398 259.442308 195.963679 260.595385 195.835845 261.748462 195.707896 262.901538 195.579832 264.054615 195.451651 265.207692 195.323354 266.360769 195.194940 267.513846 195.066408 268.666923 194.937758 269.820000 194.808989 270.973077 194.680101 272.126154 194.551093 273.279231 194.421965 274.432308 194.292715 275.585385 194.163345 276.738462 194.033852 277.891538 193.904237 279.044615 193.774499 280.197692 193.644638 281.350769 193.514652 282.503846 193.384542 283.656923 193.254307 284.810000 193.123946 285.963077 192.993459 287.116154 192.862845 288.269231 192.732104 289.422308 192.601235 290.575385 192.470238 291.728462 192.339112 292.881538 192.207856 294.034615 192.076471 295.187692 191.944955 296.340769 191.813308 297.493846 191.681530 298.646923 191.549619 299.800000 191.417576 300.953077 191.285400 302.106154 191.153092 303.259231 191.020651 304.412308 190.888079 305.565385 190.755376 306.718462 190.622542 307.871538 190.489579 309.024615 190.356486 310.177692 190.223264 311.330769 190.089914 312.483846 189.956436 313.636923 189.822831 314.790000 189.689099 315.943077 189.555241 317.096154 189.421258 318.249231 189.287149 319.402308 189.152915 320.555385 189.018558 321.708462 188.884077 322.861538 188.749473 324.014615 188.614746 325.167692 188.479898 326.320769 188.344928 327.473846 188.209837 328.626923 188.074626 329.780000 187.939295 330.933077 187.803845 332.086154 187.668276 333.239231 187.532589 334.392308 187.396784 335.545385 187.260863 336.698462 187.124824 337.851538 186.988669 339.004615 186.852399 340.157692 186.716014 341.310769 186.579515 342.463846 186.442901 343.616923 186.306174 344.770000 186.169334 345.923077 186.032382 347.076154 185.895318 348.229231 185.758142 349.382308 185.620856 350.535385 185.483460 351.688462 185.345954 352.841538 185.208339 353.994615 185.070615 355.147692 184.932783 356.300769 184.794844 357.453846 184.656797 358.606923 184.518644 359.760000 184.380385 360.913077 184.242021 362.066154 184.103552 363.219231 183.964978 364.372308 183.826301 365.525385 183.687520 366.678462 183.548637 367.831538 183.409651 368.984615 183.270563 370.137692 183.131375 371.290769 182.992086 372.443846 182.852696 373.596923 182.713207 374.750000 182.573619 375.903077 182.433933 377.056154 182.294148 378.209231 182.154266 379.362308 182.014288 380.515385 181.874212 381.668462 181.734041 382.821538 181.593775 383.974615 181.453414 385.127692 181.312959 386.280769 181.172410 387.433846 181.031767 388.586923 180.891032 389.740000 180.750205 390.893077 180.609287 392.046154 180.468277 393.199231 180.327177 394.352308 180.185987 395.505385 180.044707 396.658462 179.903338 397.811538 179.761882 398.964615 179.620337 400.117692 179.478705 401.270769 179.336986 402.423846 179.195180 403.576923 179.053290 404.730000 178.911313 405.883077 178.769253 407.036154 178.627108 408.189231 178.484879 409.342308 178.342568 410.495385 178.200174 411.648462 178.057698 412.801538 177.915140 413.954615 177.772501 415.107692 177.629783 416.260769 177.486984 417.413846 177.344106 418.566923 177.201149 419.720000 177.058114 420.873077 176.915001 422.026154 176.771811 423.179231 176.628544 424.332308 176.485201 425.485385 176.341782 426.638462 176.198289 427.791538 176.054720 428.944615 175.911078 430.097692 175.767362 431.250769 175.623574 432.403846 175.479713 433.556923 175.335780 434.710000 175.191775 435.863077 175.047700 437.016154 174.903555 438.169231 174.759340 439.322308 174.615055 440.475385 174.470702 441.628462 174.326281 442.781538 174.181792 443.934615 174.037236 445.087692 173.892614 446.240769 173.747925 447.393846 173.603171 448.546923 173.458352 449.700000 173.313469 450.853077 173.168522 452.006154 173.023511 453.159231 172.878438 454.312308 172.733302 455.465385 172.588104 456.618462 172.442845 457.771538 172.297526 458.924615 172.152146 460.077692 172.006707 461.230769 171.861209 462.383846 171.715652 463.536923 171.570037 464.690000 171.424364 465.843077 171.278635 466.996154 171.132849 468.149231 170.987007 469.302308 170.841110 470.455385 170.695157 471.608462 170.549151 472.761538 170.403091 473.914615 170.256977 475.067692 170.110811 476.220769 169.964593 477.373846 169.818323 478.526923 169.672002 479.680000 169.525630 480.833077 169.379209 481.986154 169.232737 483.139231 169.086217 484.292308 168.939649 485.445385 168.793032 486.598462 168.646368 487.751538 168.499657 488.904615 168.352900 490.057692 168.206097 491.210769 168.059249 492.363846 167.912356 493.516923 167.765419 494.670000 167.618438 495.823077 167.471414 496.976154 167.324347 498.129231 167.177239 499.282308 167.030089 500.435385 166.882897 501.588462 166.735666 502.741538 166.588394 503.894615 166.441083 505.047692 166.293734 506.200769 166.146345 507.353846 165.998919 508.506923 165.851456 509.660000 165.703956 510.813077 165.556420 511.966154 165.408848 513.119231 165.261241 514.272308 165.113600 515.425385 164.965924 516.578462 164.818215 517.731538 164.670472 518.884615 164.522698 520.037692 164.374891 521.190769 164.227053 522.343846 164.079184 523.496923 163.931285 524.650000 163.783356 525.803077 163.635397 526.956154 163.487410 528.109231 163.339395 529.262308 163.191351 530.415385 163.043281 531.568462 162.895184 532.721538 162.747061 533.874615 162.598913 535.027692 162.450739 536.180769 162.302541 537.333846 162.154319 538.486923 162.006074 539.640000 161.857806 540.793077 161.709515 541.946154 161.561202 543.099231 161.412869 544.252308 161.264514 545.405385 161.116139 546.558462 160.967745 547.711538 160.819331 548.864615 160.670899 550.017692 160.522448 551.170769 160.373980 552.323846 160.225495 553.476923 160.076994 554.630000 159.928476 555.783077 159.779943 556.936154 159.631395 558.089231 159.482833 559.242308 159.334257 560.395385 159.185667 561.548462 159.037065 562.701538 158.888451 563.854615 158.739825 565.007692 158.591187 566.160769 158.442539 567.313846 158.293881 568.466923 158.145214 569.620000 157.996537 570.773077 157.847852 571.926154 157.699158 573.079231 157.550458 574.232308 157.401750 575.385385 157.253036 576.538462 157.104316 577.691538 156.955591 578.844615 156.806861 579.997692 156.658127 581.150769 156.509389 582.303846 156.360648 583.456923 156.211904 584.610000 156.063158 585.763077 155.914410 586.916154 155.765662 588.069231 155.616913 588.069231 443.534925" /></g><g class="series serie-1 color-1"><path class="line reactive" d="M11.530769 443.534925 L11.530769 8.884615 12.683846 9.878963 13.836923 10.873295 14.990000 11.867595 16.143077 12.861845 17.296154 13.856031 18.449231 14.850135 19.602308 15.844141 20.755385 16.838034 21.908462 17.831797 23.061538 18.825413 24.214615 19.818866 25.367692 20.812141 26.520769 21.805221 27.673846 22.798089 28.826923 23.790729 29.980000 24.783125 31.133077 25.775261 32.286154 26.767121 33.439231 27.758688 34.592308 28.749946 35.745385 29.740878 36.898462 30.731469 38.051538 31.721702 39.204615 32.711562 40.357692 33.701030 41.510769 34.690092 42.663846 35.678732 43.816923 36.666932 44.970000 37.654676 46.123077 38.641949 47.276154 39.628735 48.429231 40.615015 49.582308 41.600776 50.735385 42.586000 51.888462 43.570670 53.041538 44.554772 54.194615 45.538287 55.347692 46.521202 56.500769 47.503498 57.653846 48.485159 58.806923 49.466171 59.960000 50.446515 61.113077 51.426176 62.266154 52.405138 63.419231 53.383384 64.572308 54.360898 65.725385 55.337664 66.878462 56.313666 68.031538 57.288887 69.184615 58.263311 70.337692 59.236922 71.490769 60.209703 72.643846 61.181638 73.796923 62.152712 74.950000 63.122907 76.103077 64.092208 77.256154 65.060598 78.409231 66.028060 79.562308 66.994580 80.715385 67.960139 81.868462 68.924723 83.021538 69.888315 84.174615 70.850899 85.327692 71.812457 86.480769 72.772975 87.633846 73.732436 88.786923 74.690823 89.940000 75.648120 91.093077 76.604311 92.246154 77.559380 93.399231 78.513311 94.552308 79.466087 95.705385 80.417692 96.858462 81.368109 98.011538 82.317323 99.164615 83.265317 100.317692 84.212075 101.470769 85.157580 102.623846 86.101817 103.776923 87.044769 104.930000 87.986420 106.083077 88.926754 107.236154 89.865753 108.389231 90.803403 109.542308 91.739687 110.695385 92.674588 111.848462 93.608090 113.001538 94.540177 114.154615 95.470833 115.307692 96.400041 116.460769 97.327786 117.613846 98.254051 118.766923 99.178819 119.920000 100.102074 121.073077 101.023801 122.226154 101.943983 123.379231 102.862603 124.532308 103.779645 125.685385 104.695094 126.838462 105.608932 127.991538 106.521144 129.144615 107.431713 130.297692 108.340623 131.450769 109.247858 132.603846 110.153402 133.756923 111.057237 134.910000 111.959349 136.063077 112.859720 137.216154 113.758335 138.369231 114.655177 139.522308 115.550230 140.675385 116.443477 141.828462 117.334903 142.981538 118.224491 144.134615 119.112224 145.287692 119.998088 146.440769 120.882064 147.593846 121.764138 148.746923 122.644292 149.900000 123.522511 151.053077 124.398778 152.206154 125.273078 153.359231 126.145392 154.512308 127.015707 155.665385 127.884004 156.818462 128.750269 157.971538 129.614484 159.124615 130.476633 160.277692 131.336701 161.430769 132.194670 162.583846 133.050525 163.736923 133.904250 164.890000 134.755827 166.043077 135.605242 167.196154 136.452477 168.349231 137.297516 169.502308 138.140343 170.655385 138.980942 171.808462 139.819296 172.961538 140.655390 174.114615 141.489206 175.267692 142.320730 176.420769 143.149943 177.573846 143.976831 178.726923 144.801377 179.880000 145.623564 181.033077 146.443377 182.186154 147.260799 183.339231 148.075814 184.492308 148.888405 185.645385 149.698556 186.798462 150.506252 187.951538 151.311475 189.104615 152.114210 190.257692 152.914441 191.410769 153.712150 192.563846 154.507322 193.716923 155.299940 194.870000 156.089988 196.023077 156.877451 197.176154 157.662311 198.329231 158.444553 199.482308 159.224159 200.635385 160.001115 201.788462 160.775403 202.941538 161.547007 204.094615 162.315912 205.247692 163.082100 206.400769 163.845556 207.553846 164.606264 208.706923 165.364206 209.860000 166.119367 211.013077 166.871730 212.166154 167.621280 213.319231 168.368000 214.472308 169.111873 215.625385 169.852884 216.778462 170.591016 217.931538 171.326253 219.084615 172.058578 220.237692 172.787976 221.390769 173.514430 222.543846 174.237924 223.696923 174.958441 224.850000 175.675966 226.003077 176.390482 227.156154 177.101972 228.309231 177.810421 229.462308 178.515813 230.615385 179.218130 231.768462 179.917357 232.921538 180.613478 234.074615 181.306475 235.227692 181.996334 236.380769 182.683037 237.533846 183.366569 238.686923 184.046913 239.840000 184.724052 240.993077 185.397972 242.146154 186.068655 243.299231 186.736084 244.452308 187.400245 245.605385 188.061120 246.758462 188.718693 247.911538 189.372949 249.064615 190.023870 250.217692 190.671441 251.370769 191.315645 252.523846 191.956466 253.676923 192.593887 254.830000 193.227893 255.983077 193.858467 257.136154 194.485593 258.289231 195.109255 259.442308 195.729436 260.595385 196.346121 261.748462 196.959292 262.901538 197.568933 264.054615 198.175029 265.207692 198.777563 266.360769 199.376519 267.513846 199.971881 268.666923 200.563631 269.820000 201.151755 270.973077 201.736235 272.126154 202.317056 273.279231 202.894201 274.432308 203.467654 275.585385 204.037398 276.738462 204.603418 277.891538 205.165698 279.044615 205.724220 280.197692 206.278968 281.350769 206.829927 282.503846 207.377080 283.656923 207.920411 284.810000 208.459904 285.963077 208.995542 287.116154 209.527308 288.269231 210.055188 289.422308 210.579164 290.575385 211.099220 291.728462 211.615340 292.881538 212.127508 294.034615 212.635708 295.187692 213.139922 296.340769 213.640136 297.493846 214.136332 298.646923 214.628494 299.800000 215.116607 300.953077 215.600659 302.106154 216.080661 303.259231 216.556629 304.412308 217.028580 305.565385 217.496530 306.718462 217.960495 307.871538 218.420492 309.024615 218.876536 310.177692 219.328644 311.330769 219.776833 312.483846 220.221118 313.636923 220.661515 314.790000 221.098042 315.943077 221.530714 317.096154 221.959548 318.249231 222.384559 319.402308 222.805765 320.555385 223.223181 321.708462 223.636823 322.861538 224.046708 324.014615 224.452853 325.167692 224.855273 326.320769 225.253984 327.473846 225.649004 328.626923 226.040348 329.780000 226.428032 330.933077 226.812073 332.086154 227.192486 333.239231 227.569290 334.392308 227.942498 335.545385 228.312129 336.698462 228.678197 337.851538 229.040720 339.004615 229.399714 340.157692 229.755194 341.310769 230.107177 342.463846 230.455680 343.616923 230.800718 344.770000 231.142309 345.923077 231.480467 347.076154 231.815210 348.229231 232.146554 349.382308 232.474514 350.535385 232.799108 351.688462 233.120351 352.841538 233.438260 353.994615 233.752851 355.147692 234.064141 356.300769 234.372145 357.453846 234.676879 358.606923 234.978361 359.760000 235.276606 360.913077 235.571631 362.066154 235.863452 363.219231 236.152085 364.372308 236.437546 365.525385 236.719852 366.678462 236.999018 367.831538 237.275062 368.984615 237.548000 370.137692 237.817847 371.290769 238.084620 372.443846 238.348336 373.596923 238.609010 374.750000 238.866658 375.903077 239.121298 377.056154 239.372945 378.209231 239.621616 379.362308 239.867326 380.515385 240.110093 381.668462 240.349932 382.821538 240.586860 383.974615 240.820892 385.127692 241.052046 386.280769 241.280337 387.433846 241.505782 388.586923 241.728397 389.740000 241.948198 390.893077 242.165201 392.046154 242.379423 393.199231 242.590881 394.352308 242.799589 395.505385 243.005565 396.658462 243.208825 397.811538 243.409385 398.964615 243.607262 400.117692 243.802471 401.270769 243.995028 402.423846 244.184951 403.576923 244.372256 404.730000 244.556958 405.883077 244.739074 407.036154 244.918620 408.189231 245.095613 409.342308 245.270068 410.495385 245.442002 411.648462 245.611432 412.801538 245.778373 413.954615 245.942842 415.107692 246.104855 416.260769 246.264428 417.413846 246.421578 418.566923 246.576320 419.720000 246.728672 420.873077 246.878649 422.026154 247.026268 423.179231 247.171545 424.332308 247.314495 425.485385 247.455137 426.638462 247.593485 427.791538 247.729555 428.944615 247.863366 430.097692 247.994931 431.250769 248.124268 432.403846 248.251394 433.556923 248.376323 434.710000 248.499074 435.863077 248.619661 437.016154 248.738101 438.169231 248.854410 439.322308 248.968605 440.475385 249.080702 441.628462 249.190717 442.781538 249.298666 443.934615 249.404566 445.087692 249.508433 446.240769 249.610284 447.393846 249.710133 448.546923 249.807999 449.700000 249.903896 450.853077 249.997842 452.006154 250.089852 453.159231 250.179943 454.312308 250.268130 455.465385 250.354432 456.618462 250.438863 457.771538 250.521439 458.924615 250.602178 460.077692 250.681095 461.230769 250.758207 462.383846 250.833529 463.536923 250.907079 464.690000 250.978872 465.843077 251.048925 466.996154 251.117254 468.149231 251.183875 469.302308 251.248805 470.455385 251.312059 471.608462 251.373654 472.761538 251.433607 473.914615 251.491933 475.067692 251.548649 476.220769 251.603771 477.373846 251.657315 478.526923 251.709298 479.680000 251.759736 480.833077 251.808645 481.986154 251.856041 483.139231 251.901941 484.292308 251.946361 485.445385 251.989317 486.598462 252.030826 487.751538 252.070903 488.904615 252.109565 490.057692 252.146829 491.210769 252.182710 492.363846 252.217224 493.516923 252.250389 494.670000 252.282220 495.823077 252.312734 496.976154 252.341947 498.129231 252.369874 499.282308 252.396533 500.435385 252.421940 501.588462 252.446110 502.741538 252.469061 503.894615 252.490808 505.047692 252.511368 506.200769 252.530756 507.353846 252.548990 508.506923 252.566086 509.660000 252.582059 510.813077 252.596926 511.966154 252.610703 513.119231 252.623407 514.272308 252.635054 515.425385 252.645660 516.578462 252.655241 517.731538 252.663814 518.884615 252.671394 520.037692 252.677999 521.190769 252.683644 522.343846 252.688346 523.496923 252.692120 524.650000 252.694984 525.803077 252.696954 526.956154 252.698045 528.109231 252.698274 529.262308 252.697657 530.415385 252.696211 531.568462 252.693951 532.721538 252.690895 533.874615 252.687058 535.027692 252.682456 536.180769 252.677106 537.333846 252.671024 538.486923 252.664227 539.640000 252.656730 540.793077 252.648551 541.946154 252.639704 543.099231 252.630207 544.252308 252.620075 545.405385 252.609326 546.558462 252.597974 547.711538 252.586037 548.864615 252.573531 550.017692 252.560472 551.170769 252.546876 552.323846 252.532760 553.476923 252.518139 554.630000 252.503031 555.783077 252.487450 556.936154 252.471415 558.089231 252.454940 559.242308 252.438042 560.395385 252.420738 561.548462 252.403044 562.701538 252.384975 563.854615 252.366548 565.007692 252.347780 566.160769 252.328687 567.313846 252.309285 568.466923 252.289590 569.620000 252.269618 570.773077 252.249386 571.926154 252.228910 573.079231 252.208207 574.232308 252.187292 575.385385 252.166182 576.538462 252.144892 577.691538 252.123441 578.844615 252.101843 579.997692 252.080114 581.150769 252.058272 582.303846 252.036333 583.456923 252.014312 584.610000 251.992226 585.763077 251.970091 586.916154 251.947924 588.069231 251.925740 588.069231 443.534925" /></g><g class="series serie-2 color-2"><path class="line reactive" d="M11.530769 443.534925 L11.530769 216.629311 12.683846 217.017569 13.836923 217.405806 14.990000 217.794004 16.143077 218.182142 17.296154 218.570201 18.449231 218.958161 19.602308 219.346002 20.755385 219.733703 21.908462 220.121246 23.061538 220.508610 24.214615 220.895776 25.367692 221.282724 26.520769 221.669433 27.673846 222.055885 28.826923 222.442058 29.980000 222.827934 31.133077 223.213492 32.286154 223.598713 33.439231 223.983577 34.592308 224.368063 35.745385 224.752153 36.898462 225.135826 38.051538 225.519062 39.204615 225.901842 40.357692 226.284145 41.510769 226.665952 42.663846 227.047243 43.816923 227.427999 44.970000 227.808198 46.123077 228.187823 47.276154 228.566851 48.429231 228.945265 49.582308 229.323043 50.735385 229.700167 51.888462 230.076615 53.041538 230.452369 54.194615 230.827409 55.347692 231.201714 56.500769 231.575265 57.653846 231.948042 58.806923 232.320025 59.960000 232.691194 61.113077 233.061530 62.266154 233.431013 63.419231 233.799622 64.572308 234.167338 65.725385 234.534141 66.878462 234.900012 68.031538 235.264929 69.184615 235.628875 70.337692 235.991827 71.490769 236.353768 72.643846 236.714677 73.796923 237.074534 74.950000 237.433319 76.103077 237.791012 77.256154 238.147594 78.409231 238.503045 79.562308 238.857345 80.715385 239.210474 81.868462 239.562412 83.021538 239.913139 84.174615 240.262636 85.327692 240.610882 86.480769 240.957859 87.633846 241.303545 88.786923 241.647921 89.940000 241.990968 91.093077 242.332665 92.246154 242.672993 93.399231 243.011931 94.552308 243.349461 95.705385 243.685561 96.858462 244.020213 98.011538 244.353395 99.164615 244.685090 100.317692 245.015276 101.470769 245.343934 102.623846 245.671043 103.776923 245.996585 104.930000 246.320540 106.083077 246.642886 107.236154 246.963605 108.389231 247.282677 109.542308 247.600082 110.695385 247.915800 111.848462 248.229811 113.001538 248.542095 114.154615 248.852633 115.307692 249.161404 116.460769 249.468390 117.613846 249.773569 118.766923 250.076922 119.920000 250.378430 121.073077 250.678072 122.226154 250.975828 123.379231 251.271680 124.532308 251.565606 125.685385 251.857587 126.838462 252.147603 127.991538 252.435635 129.144615 252.721662 130.297692 253.005665 131.450769 253.287624 132.603846 253.567518 133.756923 253.845329 134.910000 254.121036 136.063077 254.394619 137.216154 254.666059 138.369231 254.935335 139.522308 255.202429 140.675385 255.467319 141.828462 255.729987 142.981538 255.990412 144.134615 256.248574 145.287692 256.504454 146.440769 256.758032 147.593846 257.009288 148.746923 257.258202 149.900000 257.504754 151.053077 257.748925 152.206154 257.990694 153.359231 258.230041 154.512308 258.466948 155.665385 258.701394 156.818462 258.933359 157.971538 259.162823 159.124615 259.389766 160.277692 259.614170 161.430769 259.836013 162.583846 260.055276 163.736923 260.271939 164.890000 260.485982 166.043077 260.697385 167.196154 260.906130 168.349231 261.112195 169.502308 261.315560 170.655385 261.516207 171.808462 261.714115 172.961538 261.909264 174.114615 262.101635 175.267692 262.291207 176.420769 262.477961 177.573846 262.661877 178.726923 262.842936 179.880000 263.021116 181.033077 263.196399 182.186154 263.368764 183.339231 263.538192 184.492308 263.704663 185.645385 263.868156 186.798462 264.028653 187.951538 264.186133 189.104615 264.340577 190.257692 264.491965 191.410769 264.640276 192.563846 264.785491 193.716923 264.927590 194.870000 265.066553 196.023077 265.202361 197.176154 265.334993 198.329231 265.464430 199.482308 265.590651 200.635385 265.713638 201.788462 265.833370 202.941538 265.949827 204.094615 266.062990 205.247692 266.172838 206.400769 266.279352 207.553846 266.382512 208.706923 266.482298 209.860000 266.578690 211.013077 266.671668 212.166154 266.761214 213.319231 266.847305 214.472308 266.929924 215.625385 267.009049 216.778462 267.084662 217.931538 267.156742 219.084615 267.225270 220.237692 267.290225 221.390769 267.351587 222.543846 267.409338 223.696923 267.463457 224.850000 267.513924 226.003077 267.560719 227.156154 267.603823 228.309231 267.643215 229.462308 267.678877 230.615385 267.710787 231.768462 267.738926 232.921538 267.763275 234.074615 267.783813 235.227692 267.800521 236.380769 267.813379 237.533846 267.822366 238.686923 267.827463 239.840000 267.828651 240.993077 267.825909 242.146154 267.819218 243.299231 267.808557 244.452308 267.793907 245.605385 267.775248 246.758462 267.752560 247.911538 267.725823 249.064615 267.695018 250.217692 267.660125 251.370769 267.621123 252.523846 267.577993 253.676923 267.530715 254.830000 267.479269 255.983077 267.423636 257.136154 267.363795 258.289231 267.299727 259.442308 267.231411 260.595385 267.158829 261.748462 267.081959 262.901538 267.000783 264.054615 266.915281 265.207692 266.825432 266.360769 266.731216 267.513846 266.632615 268.666923 266.529607 269.820000 266.422174 270.973077 266.310295 272.126154 266.193951 273.279231 266.073121 274.432308 265.947786 275.585385 265.817926 276.738462 265.683522 277.891538 265.544552 279.044615 265.400998 280.197692 265.252839 281.350769 265.100056 282.503846 264.942629 283.656923 264.780538 284.810000 264.613764 285.963077 264.442285 287.116154 264.266083 288.269231 264.085138 289.422308 263.899429 290.575385 263.708938 291.728462 263.513643 292.881538 263.313526 294.034615 263.108566 295.187692 262.898744 296.340769 262.684040 297.493846 262.464433 298.646923 262.239904 299.800000 262.010434 300.953077 261.776008 302.106154 261.536641 303.259231 261.292352 304.412308 261.043160 305.565385 260.789087 306.718462 260.530151 307.871538 260.266372 309.024615 259.997770 310.177692 259.724366 311.330769 259.446179 312.483846 259.163228 313.636923 258.875534 314.790000 258.583117 315.943077 258.285995 317.096154 257.984190 318.249231 257.677722 319.402308 257.366608 320.555385 257.050871 321.708462 256.730529 322.861538 256.405603 324.014615 256.076112 325.167692 255.742076 326.320769 255.403515 327.473846 255.060449 328.626923 254.712897 329.780000 254.360880 330.933077 254.004418 332.086154 253.643529 333.239231 253.278235 334.392308 252.908554 335.545385 252.534507 336.698462 252.156114 337.851538 251.773394 339.004615 251.386367 340.157692 250.995054 341.310769 250.599473 342.463846 250.199646 343.616923 249.795591 344.770000 249.387328 345.923077 248.974878 347.076154 248.558260 348.229231 248.137494 349.382308 247.712600 350.535385 247.283598 351.688462 246.850507 352.841538 246.413348 353.994615 245.972139 355.147692 245.526903 356.300769 245.077657 357.453846 244.624422 358.606923 244.167217 359.760000 243.706063 360.913077 243.240980 362.066154 242.771986 363.219231 242.299103 364.372308 241.822349 365.525385 241.341746 366.678462 240.857312 367.831538 240.369067 368.984615 239.877032 370.137692 239.381225 371.290769 238.881668 372.443846 238.378380 373.596923 237.871380 374.750000 237.360689 375.903077 236.846326 377.056154 236.328311 378.209231 235.806665 379.362308 235.281406 380.515385 234.752555 381.668462 234.220132 382.821538 233.684156 383.974615 233.144647 385.127692 232.601626 386.280769 232.055111 387.433846 231.505123 388.586923 230.951682 389.740000 230.394808 390.893077 229.834520 392.046154 229.270838 393.199231 228.703782 394.352308 228.133372 395.505385 227.559628 396.658462 226.982570 397.811538 226.402217 398.964615 225.818589 400.117692 225.231706 401.270769 224.641589 402.423846 224.048256 403.576923 223.451728 404.730000 222.852024 405.883077 222.249165 407.036154 221.643170 408.189231 221.034059 409.342308 220.421852 410.495385 219.806569 411.648462 219.188229 412.801538 218.566853 413.954615 217.942460 415.107692 217.315070 416.260769 216.684704 417.413846 216.051380 418.566923 215.415119 419.720000 214.775940 420.873077 214.133864 422.026154 213.488910 423.179231 212.841098 424.332308 212.190448 425.485385 211.536979 426.638462 210.880713 427.791538 210.221668 428.944615 209.559864 430.097692 208.895321 431.250769 208.228059 432.403846 207.558099 433.556923 206.885458 434.710000 206.210159 435.863077 205.532220 437.016154 204.851661 438.169231 204.168502 439.322308 203.482763 440.475385 202.794464 441.628462 202.103624 442.781538 201.410264 443.934615 200.714403 445.087692 200.016062 446.240769 199.315259 447.393846 198.612016 448.546923 197.906351 449.700000 197.198284 450.853077 196.487836 452.006154 195.775026 453.159231 195.059875 454.312308 194.342401 455.465385 193.622625 456.618462 192.900566 457.771538 192.176246 458.924615 191.449682 460.077692 190.720896 461.230769 189.989906 462.383846 189.256734 463.536923 188.521398 464.690000 187.783919 465.843077 187.044316 466.996154 186.302609 468.149231 185.558819 469.302308 184.812964 470.455385 184.065066 471.608462 183.315142 472.761538 182.563215 473.914615 181.809303 475.067692 181.053426 476.220769 180.295603 477.373846 179.535856 478.526923 178.774204 479.680000 178.010666 480.833077 177.245262 481.986154 176.478013 483.139231 175.708938 484.292308 174.938057 485.445385 174.165389 486.598462 173.390956 487.751538 172.614775 488.904615 171.836868 490.057692 171.057255 491.210769 170.275954 492.363846 169.492986 493.516923 168.708371 494.670000 167.922129 495.823077 167.134279 496.976154 166.344841 498.129231 165.553835 499.282308 164.761281 500.435385 163.967199 501.588462 163.171609 502.741538 162.374530 503.894615 161.575983 505.047692 160.775986 506.200769 159.974561 507.353846 159.171727 508.506923 158.367503 509.660000 157.561910 510.813077 156.754968 511.966154 155.946695 513.119231 155.137113 514.272308 154.326241 515.425385 153.514098 516.578462 152.700706 517.731538 151.886082 518.884615 151.070248 520.037692 150.253224 521.190769 149.435028 522.343846 148.615681 523.496923 147.795203 524.650000 146.973614 525.803077 146.150933 526.956154 145.327180 528.109231 144.502375 529.262308 143.676539 530.415385 142.849690 531.568462 142.021849 532.721538 141.193035 533.874615 140.363269 535.027692 139.532570 536.180769 138.700958 537.333846 137.868453 538.486923 137.035074 539.640000 136.200843 540.793077 135.365777 541.946154 134.529898 543.099231 133.693225 544.252308 132.855778 545.405385 132.017577 546.558462 131.178642 547.711538 130.338992 548.864615 129.498647 550.017692 128.657628 551.170769 127.815954 552.323846 126.973644 553.476923 126.130720 554.630000 125.287200 555.783077 124.443104 556.936154 123.598453 558.089231 122.753266 559.242308 121.907562 560.395385 121.061363 561.548462 120.214687 562.701538 119.367555 563.854615 118.519987 565.007692 117.672001 566.160769 116.823619 567.313846 115.974859 568.466923 115.125742 569.620000 114.276288 570.773077 113.426516 571.926154 112.576447 573.079231 111.726100 574.232308 110.875494 575.385385 110.024651 576.538462 109.173589 577.691538 108.322329 578.844615 107.470890 579.997692 106.619292 581.150769 105.767556 582.303846 104.915700 583.456923 104.063745 584.610000 103.211711 585.763077 102.359617 586.916154 101.507484 588.069231 100.655330 588.069231 443.534925" /></g><g class="series serie-3 color-3"><path class="line reactive" d="M11.530769 443.534925 L11.530769 307.391557 12.683846 307.185327 13.836923 306.979114 14.990000 306.772932 16.143077 306.566799 17.296154 306.360729 18.449231 306.154738 19.602308 305.948843 20.755385 305.743060 21.908462 305.537404 23.061538 305.331891 24.214615 305.126538 25.367692 304.921360 26.520769 304.716372 27.673846 304.511592 28.826923 304.307035 29.980000 304.102717 31.133077 303.898653 32.286154 303.694861 33.439231 303.491355 34.592308 303.288151 35.745385 303.085266 36.898462 302.882716 38.051538 302.680516 39.204615 302.478682 40.357692 302.277230 41.510769 302.076177 42.663846 301.875537 43.816923 301.675328 44.970000 301.475565 46.123077 301.276263 47.276154 301.077439 48.429231 300.879109 49.582308 300.681288 50.735385 300.483993 51.888462 300.287240 53.041538 300.091044 54.194615 299.895421 55.347692 299.700387 56.500769 299.505959 57.653846 299.312152 58.806923 299.118982 59.960000 298.926464 61.113077 298.734616 62.266154 298.543452 63.419231 298.352989 64.572308 298.163243 65.725385 297.974230 66.878462 297.785965 68.031538 297.598464 69.184615 297.411744 70.337692 297.225820 71.490769 297.040708 72.643846 296.856424 73.796923 296.672985 74.950000 296.490405 76.103077 296.308701 77.256154 296.127889 78.409231 295.947985 79.562308 295.769005 80.715385 295.590964 81.868462 295.413879 83.021538 295.237765 84.174615 295.062639 85.327692 294.888516 86.480769 294.715412 87.633846 294.543344 88.786923 294.372326 89.940000 294.202376 91.093077 294.033508 92.246154 293.865739 93.399231 293.699086 94.552308 293.533562 95.705385 293.369186 96.858462 293.205972 98.011538 293.043937 99.164615 292.883096 100.317692 292.723465 101.470769 292.565061 102.623846 292.407899 103.776923 292.251995 104.930000 292.097365 106.083077 291.944025 107.236154 291.791991 108.389231 291.641279 109.542308 291.491904 110.695385 291.343884 111.848462 291.197232 113.001538 291.051967 114.154615 290.908103 115.307692 290.765656 116.460769 290.624643 117.613846 290.485078 118.766923 290.346979 119.920000 290.210362 121.073077 290.075241 122.226154 289.941633 123.379231 289.809554 124.532308 289.679019 125.685385 289.550046 126.838462 289.422649 127.991538 289.296845 129.144615 289.172649 130.297692 289.050078 131.450769 288.929147 132.603846 288.809872 133.756923 288.692269 134.910000 288.576355 136.063077 288.462144 137.216154 288.349654 138.369231 288.238900 139.522308 288.129897 140.675385 288.022662 141.828462 287.917211 142.981538 287.813559 144.134615 287.711723 145.287692 287.611719 146.440769 287.513561 147.593846 287.417268 148.746923 287.322853 149.900000 287.230333 151.053077 287.139725 152.206154 287.051044 153.359231 286.964305 154.512308 286.879526 155.665385 286.796721 156.818462 286.715907 157.971538 286.637099 159.124615 286.560314 160.277692 286.485568 161.430769 286.412876 162.583846 286.342255 163.736923 286.273719 164.890000 286.207286 166.043077 286.142971 167.196154 286.080790 168.349231 286.020759 169.502308 285.962894 170.655385 285.907211 171.808462 285.853726 172.961538 285.802454 174.114615 285.753412 175.267692 285.706615 176.420769 285.662080 177.573846 285.619822 178.726923 285.579857 179.880000 285.542202 181.033077 285.506872 182.186154 285.473883 183.339231 285.443251 184.492308 285.414992 185.645385 285.389121 186.798462 285.365656 187.951538 285.344611 189.104615 285.326003 190.257692 285.309848 191.410769 285.296161 192.563846 285.284958 193.716923 285.276256 194.870000 285.270070 196.023077 285.266416 197.176154 285.265310 198.329231 285.266769 199.482308 285.270807 200.635385 285.277441 201.788462 285.286687 202.941538 285.298561 204.094615 285.313078 205.247692 285.330255 206.400769 285.350108 207.553846 285.372652 208.706923 285.397904 209.860000 285.425878 211.013077 285.456592 212.166154 285.490061 213.319231 285.526302 214.472308 285.565329 215.625385 285.607159 216.778462 285.651808 217.931538 285.699292 219.084615 285.749626 220.237692 285.802827 221.390769 285.858911 222.543846 285.917893 223.696923 285.979790 224.850000 286.044616 226.003077 286.112390 227.156154 286.183125 228.309231 286.256838 229.462308 286.333546 230.615385 286.413263 231.768462 286.496007 232.921538 286.581792 234.074615 286.670635 235.227692 286.762552 236.380769 286.857558 237.533846 286.955669 238.686923 287.056903 239.840000 287.161273 240.993077 287.268797 242.146154 287.379490 243.299231 287.493368 244.452308 287.610448 245.605385 287.730744 246.758462 287.854273 247.911538 287.981051 249.064615 288.111094 250.217692 288.244418 251.370769 288.381038 252.523846 288.520970 253.676923 288.664232 254.830000 288.810837 255.983077 288.960803 257.136154 289.114145 258.289231 289.270880 259.442308 289.431022 260.595385 289.594589 261.748462 289.761595 262.901538 289.932058 264.054615 290.105992 265.207692 290.283414 266.360769 290.464340 267.513846 290.648785 268.666923 290.836766 269.820000 291.028298 270.973077 291.223397 272.126154 291.422080 273.279231 291.624362 274.432308 291.830259 275.585385 292.039788 276.738462 292.252963 277.891538 292.469801 279.044615 292.690318 280.197692 292.914530 281.350769 293.142452 282.503846 293.374101 283.656923 293.609493 284.810000 293.848643 285.963077 294.091568 287.116154 294.338283 288.269231 294.588804 289.422308 294.843147 290.575385 295.101329 291.728462 295.363364 292.881538 295.629269 294.034615 295.899061 295.187692 296.172754 296.340769 296.450365 297.493846 296.731909 298.646923 297.017403 299.800000 297.306863 300.953077 297.600299 302.106154 297.897700 303.259231 298.199051 304.412308 298.504335 305.565385 298.813537 306.718462 299.126641 307.871538 299.443631 309.024615 299.764491 310.177692 300.089205 311.330769 300.417757 312.483846 300.750131 313.636923 301.086312 314.790000 301.426282 315.943077 301.770027 317.096154 302.117531 318.249231 302.468777 319.402308 302.823750 320.555385 303.182434 321.708462 303.544812 322.861538 303.910869 324.014615 304.280589 325.167692 304.653956 326.320769 305.030954 327.473846 305.411568 328.626923 305.795780 329.780000 306.183576 330.933077 306.574939 332.086154 306.969854 333.239231 307.368304 334.392308 307.770273 335.545385 308.175747 336.698462 308.584708 337.851538 308.997141 339.004615 309.413030 340.157692 309.832358 341.310769 310.255111 342.463846 310.681272 343.616923 311.110825 344.770000 311.543754 345.923077 311.980044 347.076154 312.419678 348.229231 312.862641 349.382308 313.308916 350.535385 313.758488 351.688462 314.211340 352.841538 314.667457 353.994615 315.126824 355.147692 315.589423 356.300769 316.055239 357.453846 316.524256 358.606923 316.996458 359.760000 317.471829 360.913077 317.950354 362.066154 318.432016 363.219231 318.916800 364.372308 319.404689 365.525385 319.895668 366.678462 320.389720 367.831538 320.886830 368.984615 321.386982 370.137692 321.890160 371.290769 322.396348 372.443846 322.905530 373.596923 323.417690 374.750000 323.932812 375.903077 324.450880 377.056154 324.971879 378.209231 325.495792 379.362308 326.022604 380.515385 326.552298 381.668462 327.084859 382.821538 327.620270 383.974615 328.158517 385.127692 328.699582 386.280769 329.243450 387.433846 329.790105 388.586923 330.339531 389.740000 330.891713 390.893077 331.446633 392.046154 332.004277 393.199231 332.564628 394.352308 333.127671 395.505385 333.693389 396.658462 334.261767 397.811538 334.832789 398.964615 335.406438 400.117692 335.982699 401.270769 336.561556 402.423846 337.142993 403.576923 337.726994 404.730000 338.313543 405.883077 338.902624 407.036154 339.494222 408.189231 340.088320 409.342308 340.684902 410.495385 341.283953 411.648462 341.885456 412.801538 342.489397 413.954615 343.095757 415.107692 343.704523 416.260769 344.315677 417.413846 344.929205 418.566923 345.545089 419.720000 346.163314 420.873077 346.783865 422.026154 347.406725 423.179231 348.031878 424.332308 348.659308 425.485385 349.289000 426.638462 349.920938 427.791538 350.555105 428.944615 351.191486 430.097692 351.830064 431.250769 352.470825 432.403846 353.113751 433.556923 353.758827 434.710000 354.406038 435.863077 355.055366 437.016154 355.706797 438.169231 356.360314 439.322308 357.015901 440.475385 357.673542 441.628462 358.333223 442.781538 358.994925 443.934615 359.658635 445.087692 360.324335 446.240769 360.992010 447.393846 361.661643 448.546923 362.333220 449.700000 363.006724 450.853077 363.682139 452.006154 364.359449 453.159231 365.038638 454.312308 365.719690 455.465385 366.402590 456.618462 367.087322 457.771538 367.773869 458.924615 368.462215 460.077692 369.152345 461.230769 369.844243 462.383846 370.537893 463.536923 371.233279 464.690000 371.930384 465.843077 372.629194 466.996154 373.329692 468.149231 374.031862 469.302308 374.735688 470.455385 375.441155 471.608462 376.148246 472.761538 376.856946 473.914615 377.567238 475.067692 378.279107 476.220769 378.992536 477.373846 379.707511 478.526923 380.424014 479.680000 381.142030 480.833077 381.861543 481.986154 382.582538 483.139231 383.304997 484.292308 384.028906 485.445385 384.754248 486.598462 385.481007 487.751538 386.209168 488.904615 386.938715 490.057692 387.669631 491.210769 388.401900 492.363846 389.135508 493.516923 389.870437 494.670000 390.606672 495.823077 391.344198 496.976154 392.082997 498.129231 392.823054 499.282308 393.564354 500.435385 394.306880 501.588462 395.050616 502.741538 395.795547 503.894615 396.541656 505.047692 397.288928 506.200769 398.037346 507.353846 398.786895 508.506923 399.537559 509.660000 400.289322 510.813077 401.042168 511.966154 401.796081 513.119231 402.551045 514.272308 403.307044 515.425385 404.064062 516.578462 404.822084 517.731538 405.581093 518.884615 406.341073 520.037692 407.102009 521.190769 407.863885 522.343846 408.626685 523.496923 409.390392 524.650000 410.154991 525.803077 410.920466 526.956154 411.686801 528.109231 412.453979 529.262308 413.221987 530.415385 413.990806 531.568462 414.760422 532.721538 415.530817 533.874615 416.301978 535.027692 417.073887 536.180769 417.846528 537.333846 418.619886 538.486923 419.393945 539.640000 420.168689 540.793077 420.944102 541.946154 421.720167 543.099231 422.496870 544.252308 423.274193 545.405385 424.052122 546.558462 424.830640 547.711538 425.609732 548.864615 426.389381 550.017692 427.169571 551.170769 427.950287 552.323846 428.731512 553.476923 429.513231 554.630000 430.295428 555.783077 431.078087 556.936154 431.861192 558.089231 432.644727 559.242308 433.428675 560.395385 434.213022 561.548462 434.997751 562.701538 435.782847 563.854615 436.568293 565.007692 437.354073 566.160769 438.140172 567.313846 438.926573 568.466923 439.713261 569.620000 440.500220 570.773077 441.287433 571.926154 442.074886 573.079231 442.862561 574.232308 443.650444 575.385385 444.438517 576.538462 445.226766 577.691538 446.015174 578.844615 446.803725 579.997692 447.592404 581.150769 448.381194 582.303846 449.170080 583.456923 449.959045 584.610000 450.748074 585.763077 451.537151 586.916154 452.326260 588.069231 453.115385 588.069231 443.534925" /></g></g><g class="titles"><text class="title plot_title" x="400.0" y="26">Growth Rates</text><text class="title plot_title" x="400.0" y="52">Graph by Daily Pakistan</text><text class="title" x="480.2" y="580">Year</text><text class="title" transform="rotate(-90 114.400000 303.000000)" x="114.39999999999999" y="329.0">in %</text></g><g class="plot overlay" transform="translate(180, 72)"><g class="series serie-0 color-0"><g class="dots"><circle class="dot reactive tooltip-trigger" cx="11.53076923076923" cy="221.6716580808521" r="2.5" /><desc class="value">4.4</desc><desc class="x ">11.53076923076923</desc><desc class="y ">221.6716580808521</desc><desc class="x_label">2013-2014</desc></g><g class="dots"><circle class="dot reactive tooltip-trigger" cx="299.8" cy="191.41757618091322" r="2.5" /><desc class="value">5</desc><desc class="x ">299.8</desc><desc class="y ">191.41757618091322</desc><desc class="x_label">2014-2015</desc></g><g class="dots"><circle class="dot reactive tooltip-trigger" cx="588.0692307692308" cy="155.61691259931888" r="2.5" /><desc class="value">5.71</desc><desc class="x left">588.0692307692308</desc><desc class="y left">155.61691259931888</desc><desc class="x_label">2015-2016</desc></g></g><g class="series serie-1 color-1"><g class="dots"><circle class="dot reactive tooltip-trigger" cx="11.53076923076923" cy="8.884615384615302" r="2.5" /><desc class="value">8.62</desc><desc class="x ">11.53076923076923</desc><desc class="y ">8.884615384615302</desc><desc class="x_label">2013-2014</desc></g><g class="dots"><circle class="dot reactive tooltip-trigger" cx="299.8" cy="215.11660700253202" r="2.5" /><desc class="value">4.53</desc><desc class="x ">299.8</desc><desc class="y ">215.11660700253202</desc><desc class="x_label">2014-2015</desc></g><g class="dots"><circle class="dot reactive tooltip-trigger" cx="588.0692307692308" cy="251.925739980791" r="2.5" /><desc class="value">3.8</desc><desc class="x left top">588.0692307692308</desc><desc class="y left top">251.925739980791</desc><desc class="x_label">2015-2016</desc></g></g><g class="series serie-2 color-2"><g class="dots"><circle class="dot reactive tooltip-trigger" cx="11.53076923076923" cy="216.62931109752898" r="2.5" /><desc class="value">4.5</desc><desc class="x ">11.53076923076923</desc><desc class="y ">216.62931109752898</desc><desc class="x_label">2013-2014</desc></g><g class="dots"><circle class="dot reactive tooltip-trigger" cx="299.8" cy="262.01043394743726" r="2.5" /><desc class="value">3.6</desc><desc class="x top">299.8</desc><desc class="y top">262.01043394743726</desc><desc class="x_label">2014-2015</desc></g><g class="dots"><circle class="dot reactive tooltip-trigger" cx="588.0692307692308" cy="100.6553304810966" r="2.5" /><desc class="value">6.8</desc><desc class="x left">588.0692307692308</desc><desc class="y left">100.6553304810966</desc><desc class="x_label">2015-2016</desc></g></g><g class="series serie-3 color-3"><g class="dots"><circle class="dot reactive tooltip-trigger" cx="11.53076923076923" cy="307.39155679734563" r="2.5" /><desc class="value">2.7</desc><desc class="x top">11.53076923076923</desc><desc class="y top">307.39155679734563</desc><desc class="x_label">2013-2014</desc></g><g class="dots"><circle class="dot reactive tooltip-trigger" cx="299.8" cy="297.30686283069934" r="2.5" /><desc class="value">2.9</desc><desc class="x top">299.8</desc><desc class="y top">297.30686283069934</desc><desc class="x_label">2014-2015</desc></g><g class="dots"><circle class="dot reactive tooltip-trigger" cx="588.0692307692308" cy="453.11538461538464" r="2.5" /><desc class="value">-0.19</desc><desc class="x left top">588.0692307692308</desc><desc class="y left top">453.11538461538464</desc><desc class="x_label">2015-2016</desc></g></g></g><g class="plot text-overlay" transform="translate(180, 72)"><g class="series serie-0 color-0" /><g class="series serie-1 color-1" /><g class="series serie-2 color-2" /><g class="series serie-3 color-3" /></g><g class="plot tooltip-overlay" transform="translate(180, 72)"><g class="tooltip" style="opacity: 0" transform="translate(0 0)"><rect class="tooltip-box" height="0" rx="0" ry="0" width="0" /><g class="text" /></g></g><g class="legends" transform="translate(10, 82)"><g class="legend reactive activate-serie" id="activate-serie-0"><rect class="color-0 reactive" height="12" width="12" x="0.0" y="1.0" /><text x="17.0" y="11.2">Services</text></g><g class="legend reactive activate-serie" id="activate-serie-1"><rect class="color-1 reactive" height="12" width="12" x="0.0" y="22.0" /><text x="17.0" y="32.2">Inflation</text></g><g class="legend reactive activate-serie" id="activate-serie-2"><rect class="color-2 reactive" height="12" width="12" x="0.0" y="43.0" /><text x="17.0" y="53.2">Industry</text></g><g class="legend reactive activate-serie" id="activate-serie-3"><rect class="color-3 reactive" height="12" width="12" x="0.0" y="64.0" /><text x="17.0" y="74.2">Agriculture</text></g></g><g class="legends" transform="translate(790, 82)" /></g></svg>